<mxfile host="app.diagrams.net" modified="2021-04-28T07:51:37.096Z" agent="5.0 (Windows NT 10.0; Win64; x64) AppleWebKit/537.36 (KHTML, like Gecko) Chrome/90.0.4430.85 Safari/537.36" etag="3RyVUwEPlzddz-uFGP_i" version="14.6.6" type="github">
  <diagram id="GVZNi474_ImD_bvJMVS8" name="第 1 页">
    <mxGraphModel dx="981" dy="487" grid="1" gridSize="10" guides="1" tooltips="1" connect="1" arrows="1" fold="1" page="1" pageScale="1" pageWidth="827" pageHeight="1169" math="0" shadow="0">
      <root>
        <mxCell id="0" />
        <mxCell id="1" parent="0" />
        <mxCell id="wa8ue6IfsQ15fD_jYDgk-1" value="" style="rounded=1;whiteSpace=wrap;html=1;" vertex="1" parent="1">
          <mxGeometry x="80" y="292" width="450" height="100" as="geometry" />
        </mxCell>
        <mxCell id="wa8ue6IfsQ15fD_jYDgk-3" value="" style="rounded=0;whiteSpace=wrap;html=1;fillColor=#f8cecc;strokeColor=#b85450;" vertex="1" parent="1">
          <mxGeometry x="89" y="256" width="40" height="20" as="geometry" />
        </mxCell>
        <mxCell id="wa8ue6IfsQ15fD_jYDgk-4" style="edgeStyle=none;rounded=0;orthogonalLoop=1;jettySize=auto;html=1;exitX=0.5;exitY=0;exitDx=0;exitDy=0;entryX=0.511;entryY=1.193;entryDx=0;entryDy=0;entryPerimeter=0;startArrow=none;startFill=0;" edge="1" parent="1" source="wa8ue6IfsQ15fD_jYDgk-5" target="wa8ue6IfsQ15fD_jYDgk-3">
          <mxGeometry relative="1" as="geometry" />
        </mxCell>
        <mxCell id="wa8ue6IfsQ15fD_jYDgk-5" value="" style="rounded=0;whiteSpace=wrap;html=1;fillColor=#dae8fc;strokeColor=#6c8ebf;" vertex="1" parent="1">
          <mxGeometry x="90" y="300" width="40" height="20" as="geometry" />
        </mxCell>
        <mxCell id="wa8ue6IfsQ15fD_jYDgk-6" value="" style="rounded=0;whiteSpace=wrap;html=1;fillColor=#dae8fc;strokeColor=#6c8ebf;" vertex="1" parent="1">
          <mxGeometry x="140" y="300" width="40" height="20" as="geometry" />
        </mxCell>
        <mxCell id="wa8ue6IfsQ15fD_jYDgk-7" value="" style="rounded=0;whiteSpace=wrap;html=1;fillColor=#dae8fc;strokeColor=#6c8ebf;" vertex="1" parent="1">
          <mxGeometry x="260" y="300" width="40" height="20" as="geometry" />
        </mxCell>
        <mxCell id="wa8ue6IfsQ15fD_jYDgk-8" style="rounded=0;orthogonalLoop=1;jettySize=auto;html=1;entryX=0.5;entryY=1;entryDx=0;entryDy=0;exitX=0.5;exitY=0;exitDx=0;exitDy=0;" edge="1" parent="1" source="wa8ue6IfsQ15fD_jYDgk-11" target="wa8ue6IfsQ15fD_jYDgk-6">
          <mxGeometry relative="1" as="geometry">
            <mxPoint x="110" y="360" as="sourcePoint" />
          </mxGeometry>
        </mxCell>
        <mxCell id="wa8ue6IfsQ15fD_jYDgk-9" style="edgeStyle=none;rounded=0;orthogonalLoop=1;jettySize=auto;html=1;exitX=0.5;exitY=0;exitDx=0;exitDy=0;startArrow=none;startFill=0;" edge="1" parent="1" source="wa8ue6IfsQ15fD_jYDgk-11">
          <mxGeometry relative="1" as="geometry">
            <mxPoint x="109.85714285714289" y="320" as="targetPoint" />
          </mxGeometry>
        </mxCell>
        <mxCell id="wa8ue6IfsQ15fD_jYDgk-10" style="edgeStyle=none;rounded=0;orthogonalLoop=1;jettySize=auto;html=1;exitX=0.5;exitY=0;exitDx=0;exitDy=0;startArrow=none;startFill=0;" edge="1" parent="1" source="wa8ue6IfsQ15fD_jYDgk-11">
          <mxGeometry relative="1" as="geometry">
            <mxPoint x="280" y="320" as="targetPoint" />
          </mxGeometry>
        </mxCell>
        <mxCell id="wa8ue6IfsQ15fD_jYDgk-11" value="" style="rounded=0;whiteSpace=wrap;html=1;fillColor=#dae8fc;strokeColor=#6c8ebf;" vertex="1" parent="1">
          <mxGeometry x="90" y="360" width="40" height="20" as="geometry" />
        </mxCell>
        <mxCell id="wa8ue6IfsQ15fD_jYDgk-12" style="edgeStyle=none;rounded=0;orthogonalLoop=1;jettySize=auto;html=1;exitX=0.5;exitY=0;exitDx=0;exitDy=0;" edge="1" parent="1" source="wa8ue6IfsQ15fD_jYDgk-15">
          <mxGeometry relative="1" as="geometry">
            <mxPoint x="160.1428571428571" y="320" as="targetPoint" />
          </mxGeometry>
        </mxCell>
        <mxCell id="wa8ue6IfsQ15fD_jYDgk-13" style="edgeStyle=none;rounded=0;orthogonalLoop=1;jettySize=auto;html=1;exitX=0.5;exitY=0;exitDx=0;exitDy=0;entryX=0.5;entryY=1;entryDx=0;entryDy=0;startArrow=none;startFill=0;" edge="1" parent="1" source="wa8ue6IfsQ15fD_jYDgk-15" target="wa8ue6IfsQ15fD_jYDgk-5">
          <mxGeometry relative="1" as="geometry" />
        </mxCell>
        <mxCell id="wa8ue6IfsQ15fD_jYDgk-14" style="edgeStyle=none;rounded=0;orthogonalLoop=1;jettySize=auto;html=1;exitX=0.5;exitY=0;exitDx=0;exitDy=0;startArrow=none;startFill=0;" edge="1" parent="1" source="wa8ue6IfsQ15fD_jYDgk-15">
          <mxGeometry relative="1" as="geometry">
            <mxPoint x="280" y="320" as="targetPoint" />
          </mxGeometry>
        </mxCell>
        <mxCell id="wa8ue6IfsQ15fD_jYDgk-15" value="" style="rounded=0;whiteSpace=wrap;html=1;fillColor=#dae8fc;strokeColor=#6c8ebf;" vertex="1" parent="1">
          <mxGeometry x="140" y="360" width="40" height="20" as="geometry" />
        </mxCell>
        <mxCell id="wa8ue6IfsQ15fD_jYDgk-16" value="&lt;b&gt;. . .&lt;/b&gt;" style="text;html=1;align=center;verticalAlign=middle;resizable=0;points=[];autosize=1;strokeColor=none;" vertex="1" parent="1">
          <mxGeometry x="205" y="300" width="30" height="20" as="geometry" />
        </mxCell>
        <mxCell id="wa8ue6IfsQ15fD_jYDgk-17" value="&lt;b&gt;. . .&lt;/b&gt;" style="text;html=1;align=center;verticalAlign=middle;resizable=0;points=[];autosize=1;strokeColor=none;" vertex="1" parent="1">
          <mxGeometry x="205" y="360" width="30" height="20" as="geometry" />
        </mxCell>
        <mxCell id="wa8ue6IfsQ15fD_jYDgk-18" style="edgeStyle=none;rounded=0;orthogonalLoop=1;jettySize=auto;html=1;exitX=0.5;exitY=0;exitDx=0;exitDy=0;entryX=0.5;entryY=1;entryDx=0;entryDy=0;startArrow=none;startFill=0;" edge="1" parent="1" source="wa8ue6IfsQ15fD_jYDgk-21" target="wa8ue6IfsQ15fD_jYDgk-6">
          <mxGeometry relative="1" as="geometry" />
        </mxCell>
        <mxCell id="wa8ue6IfsQ15fD_jYDgk-19" style="edgeStyle=none;rounded=0;orthogonalLoop=1;jettySize=auto;html=1;exitX=0.5;exitY=0;exitDx=0;exitDy=0;entryX=0.5;entryY=1;entryDx=0;entryDy=0;startArrow=none;startFill=0;" edge="1" parent="1" source="wa8ue6IfsQ15fD_jYDgk-21" target="wa8ue6IfsQ15fD_jYDgk-7">
          <mxGeometry relative="1" as="geometry" />
        </mxCell>
        <mxCell id="wa8ue6IfsQ15fD_jYDgk-20" style="edgeStyle=none;rounded=0;orthogonalLoop=1;jettySize=auto;html=1;exitX=0.5;exitY=0;exitDx=0;exitDy=0;entryX=0.5;entryY=1;entryDx=0;entryDy=0;startArrow=none;startFill=0;" edge="1" parent="1" source="wa8ue6IfsQ15fD_jYDgk-21" target="wa8ue6IfsQ15fD_jYDgk-5">
          <mxGeometry relative="1" as="geometry" />
        </mxCell>
        <mxCell id="wa8ue6IfsQ15fD_jYDgk-21" value="" style="rounded=0;whiteSpace=wrap;html=1;fillColor=#dae8fc;strokeColor=#6c8ebf;" vertex="1" parent="1">
          <mxGeometry x="260" y="360" width="40" height="20" as="geometry" />
        </mxCell>
        <mxCell id="wa8ue6IfsQ15fD_jYDgk-22" style="edgeStyle=none;rounded=0;orthogonalLoop=1;jettySize=auto;html=1;exitX=0.5;exitY=0;exitDx=0;exitDy=0;entryX=0.5;entryY=1;entryDx=0;entryDy=0;startArrow=none;startFill=0;" edge="1" parent="1" source="wa8ue6IfsQ15fD_jYDgk-23" target="wa8ue6IfsQ15fD_jYDgk-11">
          <mxGeometry relative="1" as="geometry" />
        </mxCell>
        <mxCell id="wa8ue6IfsQ15fD_jYDgk-23" value="[CLS]" style="rounded=0;whiteSpace=wrap;html=1;fillColor=#ffe6cc;strokeColor=#d79b00;" vertex="1" parent="1">
          <mxGeometry x="90" y="401" width="40" height="20" as="geometry" />
        </mxCell>
        <mxCell id="wa8ue6IfsQ15fD_jYDgk-24" value="" style="edgeStyle=none;rounded=0;orthogonalLoop=1;jettySize=auto;html=1;startArrow=none;startFill=0;entryX=0.5;entryY=1;entryDx=0;entryDy=0;" edge="1" parent="1" source="wa8ue6IfsQ15fD_jYDgk-25" target="wa8ue6IfsQ15fD_jYDgk-15">
          <mxGeometry relative="1" as="geometry" />
        </mxCell>
        <mxCell id="wa8ue6IfsQ15fD_jYDgk-25" value="&lt;i&gt;&lt;font style=&quot;font-size: 15px&quot;&gt;q&lt;/font&gt;&lt;sup&gt;(1)&lt;/sup&gt;&lt;/i&gt;" style="rounded=0;whiteSpace=wrap;html=1;fillColor=#ffe6cc;strokeColor=#d79b00;" vertex="1" parent="1">
          <mxGeometry x="140" y="401" width="40" height="20" as="geometry" />
        </mxCell>
        <mxCell id="wa8ue6IfsQ15fD_jYDgk-26" style="edgeStyle=none;rounded=0;orthogonalLoop=1;jettySize=auto;html=1;entryX=0.5;entryY=1;entryDx=0;entryDy=0;startArrow=none;startFill=0;" edge="1" parent="1" source="wa8ue6IfsQ15fD_jYDgk-27" target="wa8ue6IfsQ15fD_jYDgk-21">
          <mxGeometry relative="1" as="geometry" />
        </mxCell>
        <mxCell id="wa8ue6IfsQ15fD_jYDgk-27" value="&lt;i&gt;&lt;font style=&quot;font-size: 15px&quot;&gt;q&lt;/font&gt;&lt;sup&gt;(m)&lt;/sup&gt;&lt;/i&gt;" style="rounded=0;whiteSpace=wrap;html=1;fillColor=#ffe6cc;strokeColor=#d79b00;" vertex="1" parent="1">
          <mxGeometry x="260" y="401" width="40" height="20" as="geometry" />
        </mxCell>
        <mxCell id="wa8ue6IfsQ15fD_jYDgk-28" value="" style="endArrow=none;html=1;" edge="1" parent="1">
          <mxGeometry width="50" height="50" relative="1" as="geometry">
            <mxPoint x="140" y="437" as="sourcePoint" />
            <mxPoint x="140" y="427" as="targetPoint" />
          </mxGeometry>
        </mxCell>
        <mxCell id="wa8ue6IfsQ15fD_jYDgk-29" value="" style="endArrow=none;html=1;" edge="1" parent="1">
          <mxGeometry width="50" height="50" relative="1" as="geometry">
            <mxPoint x="301" y="437" as="sourcePoint" />
            <mxPoint x="301" y="427" as="targetPoint" />
          </mxGeometry>
        </mxCell>
        <mxCell id="wa8ue6IfsQ15fD_jYDgk-30" value="" style="endArrow=none;html=1;" edge="1" parent="1">
          <mxGeometry width="50" height="50" relative="1" as="geometry">
            <mxPoint x="140" y="432" as="sourcePoint" />
            <mxPoint x="300" y="432" as="targetPoint" />
          </mxGeometry>
        </mxCell>
        <mxCell id="wa8ue6IfsQ15fD_jYDgk-31" value="question" style="text;html=1;align=center;verticalAlign=middle;resizable=0;points=[];autosize=1;strokeColor=none;" vertex="1" parent="1">
          <mxGeometry x="194" y="434" width="60" height="20" as="geometry" />
        </mxCell>
        <mxCell id="wa8ue6IfsQ15fD_jYDgk-64" value="&lt;font&gt;&lt;b&gt;&lt;font style=&quot;font-size: 15px&quot;&gt;&lt;i&gt;M&lt;sub&gt;C&lt;/sub&gt;&lt;/i&gt;&lt;/font&gt;&lt;font style=&quot;font-size: 15px&quot;&gt;&amp;nbsp;:&amp;nbsp;&lt;/font&gt;&lt;/b&gt;&lt;b style=&quot;font-size: 15px&quot;&gt;A cross-encoder based on pre-trained&amp;nbsp;&lt;/b&gt;&lt;/font&gt;&lt;b&gt;&lt;span style=&quot;font-size: 14px&quot;&gt;ERNIE&lt;/span&gt;&lt;/b&gt;" style="text;html=1;align=center;verticalAlign=middle;resizable=0;points=[];autosize=1;strokeColor=none;" vertex="1" parent="1">
          <mxGeometry x="133" y="460" width="370" height="20" as="geometry" />
        </mxCell>
        <mxCell id="wa8ue6IfsQ15fD_jYDgk-96" value="" style="rounded=0;whiteSpace=wrap;html=1;fillColor=#dae8fc;strokeColor=#6c8ebf;" vertex="1" parent="1">
          <mxGeometry x="309" y="300" width="40" height="20" as="geometry" />
        </mxCell>
        <mxCell id="wa8ue6IfsQ15fD_jYDgk-97" value="" style="rounded=0;whiteSpace=wrap;html=1;fillColor=#dae8fc;strokeColor=#6c8ebf;" vertex="1" parent="1">
          <mxGeometry x="359" y="300" width="40" height="20" as="geometry" />
        </mxCell>
        <mxCell id="wa8ue6IfsQ15fD_jYDgk-98" value="" style="rounded=0;whiteSpace=wrap;html=1;fillColor=#dae8fc;strokeColor=#6c8ebf;" vertex="1" parent="1">
          <mxGeometry x="479" y="300" width="40" height="20" as="geometry" />
        </mxCell>
        <mxCell id="wa8ue6IfsQ15fD_jYDgk-99" style="rounded=0;orthogonalLoop=1;jettySize=auto;html=1;entryX=0.5;entryY=1;entryDx=0;entryDy=0;exitX=0.5;exitY=0;exitDx=0;exitDy=0;" edge="1" parent="1" source="wa8ue6IfsQ15fD_jYDgk-102" target="wa8ue6IfsQ15fD_jYDgk-97">
          <mxGeometry relative="1" as="geometry">
            <mxPoint x="329" y="360" as="sourcePoint" />
          </mxGeometry>
        </mxCell>
        <mxCell id="wa8ue6IfsQ15fD_jYDgk-100" style="edgeStyle=none;rounded=0;orthogonalLoop=1;jettySize=auto;html=1;exitX=0.5;exitY=0;exitDx=0;exitDy=0;startArrow=none;startFill=0;" edge="1" parent="1" source="wa8ue6IfsQ15fD_jYDgk-102">
          <mxGeometry relative="1" as="geometry">
            <mxPoint x="328.8571428571429" y="319.9999999999999" as="targetPoint" />
          </mxGeometry>
        </mxCell>
        <mxCell id="wa8ue6IfsQ15fD_jYDgk-101" style="edgeStyle=none;rounded=0;orthogonalLoop=1;jettySize=auto;html=1;exitX=0.5;exitY=0;exitDx=0;exitDy=0;startArrow=none;startFill=0;" edge="1" parent="1" source="wa8ue6IfsQ15fD_jYDgk-102">
          <mxGeometry relative="1" as="geometry">
            <mxPoint x="499" y="319.9999999999999" as="targetPoint" />
          </mxGeometry>
        </mxCell>
        <mxCell id="wa8ue6IfsQ15fD_jYDgk-102" value="" style="rounded=0;whiteSpace=wrap;html=1;fillColor=#dae8fc;strokeColor=#6c8ebf;" vertex="1" parent="1">
          <mxGeometry x="309" y="360" width="40" height="20" as="geometry" />
        </mxCell>
        <mxCell id="wa8ue6IfsQ15fD_jYDgk-103" style="edgeStyle=none;rounded=0;orthogonalLoop=1;jettySize=auto;html=1;exitX=0.5;exitY=0;exitDx=0;exitDy=0;" edge="1" parent="1" source="wa8ue6IfsQ15fD_jYDgk-106">
          <mxGeometry relative="1" as="geometry">
            <mxPoint x="379.1428571428571" y="319.9999999999999" as="targetPoint" />
          </mxGeometry>
        </mxCell>
        <mxCell id="wa8ue6IfsQ15fD_jYDgk-104" style="edgeStyle=none;rounded=0;orthogonalLoop=1;jettySize=auto;html=1;exitX=0.5;exitY=0;exitDx=0;exitDy=0;entryX=0.5;entryY=1;entryDx=0;entryDy=0;startArrow=none;startFill=0;" edge="1" parent="1" source="wa8ue6IfsQ15fD_jYDgk-106" target="wa8ue6IfsQ15fD_jYDgk-96">
          <mxGeometry relative="1" as="geometry" />
        </mxCell>
        <mxCell id="wa8ue6IfsQ15fD_jYDgk-105" style="edgeStyle=none;rounded=0;orthogonalLoop=1;jettySize=auto;html=1;exitX=0.5;exitY=0;exitDx=0;exitDy=0;startArrow=none;startFill=0;" edge="1" parent="1" source="wa8ue6IfsQ15fD_jYDgk-106">
          <mxGeometry relative="1" as="geometry">
            <mxPoint x="499" y="319.9999999999999" as="targetPoint" />
          </mxGeometry>
        </mxCell>
        <mxCell id="wa8ue6IfsQ15fD_jYDgk-106" value="" style="rounded=0;whiteSpace=wrap;html=1;fillColor=#dae8fc;strokeColor=#6c8ebf;" vertex="1" parent="1">
          <mxGeometry x="359" y="360" width="40" height="20" as="geometry" />
        </mxCell>
        <mxCell id="wa8ue6IfsQ15fD_jYDgk-107" value="&lt;b&gt;. . .&lt;/b&gt;" style="text;html=1;align=center;verticalAlign=middle;resizable=0;points=[];autosize=1;strokeColor=none;" vertex="1" parent="1">
          <mxGeometry x="424" y="301" width="30" height="20" as="geometry" />
        </mxCell>
        <mxCell id="wa8ue6IfsQ15fD_jYDgk-108" value="&lt;b&gt;. . .&lt;/b&gt;" style="text;html=1;align=center;verticalAlign=middle;resizable=0;points=[];autosize=1;strokeColor=none;" vertex="1" parent="1">
          <mxGeometry x="424" y="360" width="30" height="20" as="geometry" />
        </mxCell>
        <mxCell id="wa8ue6IfsQ15fD_jYDgk-109" style="edgeStyle=none;rounded=0;orthogonalLoop=1;jettySize=auto;html=1;exitX=0.5;exitY=0;exitDx=0;exitDy=0;entryX=0.5;entryY=1;entryDx=0;entryDy=0;startArrow=none;startFill=0;" edge="1" parent="1" source="wa8ue6IfsQ15fD_jYDgk-112" target="wa8ue6IfsQ15fD_jYDgk-97">
          <mxGeometry relative="1" as="geometry" />
        </mxCell>
        <mxCell id="wa8ue6IfsQ15fD_jYDgk-110" style="edgeStyle=none;rounded=0;orthogonalLoop=1;jettySize=auto;html=1;exitX=0.5;exitY=0;exitDx=0;exitDy=0;entryX=0.5;entryY=1;entryDx=0;entryDy=0;startArrow=none;startFill=0;" edge="1" parent="1" source="wa8ue6IfsQ15fD_jYDgk-112" target="wa8ue6IfsQ15fD_jYDgk-98">
          <mxGeometry relative="1" as="geometry" />
        </mxCell>
        <mxCell id="wa8ue6IfsQ15fD_jYDgk-111" style="edgeStyle=none;rounded=0;orthogonalLoop=1;jettySize=auto;html=1;exitX=0.5;exitY=0;exitDx=0;exitDy=0;entryX=0.5;entryY=1;entryDx=0;entryDy=0;startArrow=none;startFill=0;" edge="1" parent="1" source="wa8ue6IfsQ15fD_jYDgk-112" target="wa8ue6IfsQ15fD_jYDgk-96">
          <mxGeometry relative="1" as="geometry" />
        </mxCell>
        <mxCell id="wa8ue6IfsQ15fD_jYDgk-112" value="" style="rounded=0;whiteSpace=wrap;html=1;fillColor=#dae8fc;strokeColor=#6c8ebf;" vertex="1" parent="1">
          <mxGeometry x="479" y="360" width="40" height="20" as="geometry" />
        </mxCell>
        <mxCell id="wa8ue6IfsQ15fD_jYDgk-113" style="edgeStyle=none;rounded=0;orthogonalLoop=1;jettySize=auto;html=1;exitX=0.5;exitY=0;exitDx=0;exitDy=0;entryX=0.5;entryY=1;entryDx=0;entryDy=0;startArrow=none;startFill=0;" edge="1" parent="1" source="wa8ue6IfsQ15fD_jYDgk-114" target="wa8ue6IfsQ15fD_jYDgk-102">
          <mxGeometry relative="1" as="geometry" />
        </mxCell>
        <mxCell id="wa8ue6IfsQ15fD_jYDgk-114" value="[SEP]" style="rounded=0;whiteSpace=wrap;html=1;fillColor=#ffe6cc;strokeColor=#d79b00;" vertex="1" parent="1">
          <mxGeometry x="309" y="401" width="40" height="20" as="geometry" />
        </mxCell>
        <mxCell id="wa8ue6IfsQ15fD_jYDgk-115" value="" style="edgeStyle=none;rounded=0;orthogonalLoop=1;jettySize=auto;html=1;startArrow=none;startFill=0;entryX=0.5;entryY=1;entryDx=0;entryDy=0;" edge="1" parent="1" source="wa8ue6IfsQ15fD_jYDgk-116" target="wa8ue6IfsQ15fD_jYDgk-106">
          <mxGeometry relative="1" as="geometry" />
        </mxCell>
        <mxCell id="wa8ue6IfsQ15fD_jYDgk-116" value="&lt;span style=&quot;font-size: 15px&quot;&gt;&lt;i&gt;V&lt;sup&gt;(1)&lt;/sup&gt;&lt;/i&gt;&lt;/span&gt;" style="rounded=0;whiteSpace=wrap;html=1;fillColor=#ffe6cc;strokeColor=#d79b00;" vertex="1" parent="1">
          <mxGeometry x="359" y="401" width="40" height="20" as="geometry" />
        </mxCell>
        <mxCell id="wa8ue6IfsQ15fD_jYDgk-117" style="edgeStyle=none;rounded=0;orthogonalLoop=1;jettySize=auto;html=1;entryX=0.5;entryY=1;entryDx=0;entryDy=0;startArrow=none;startFill=0;" edge="1" parent="1" source="wa8ue6IfsQ15fD_jYDgk-118" target="wa8ue6IfsQ15fD_jYDgk-112">
          <mxGeometry relative="1" as="geometry" />
        </mxCell>
        <mxCell id="wa8ue6IfsQ15fD_jYDgk-118" value="&lt;span style=&quot;font-size: 15px&quot;&gt;&lt;i&gt;V&lt;sup&gt;(m)&lt;/sup&gt;&lt;/i&gt;&lt;/span&gt;" style="rounded=0;whiteSpace=wrap;html=1;fillColor=#ffe6cc;strokeColor=#d79b00;" vertex="1" parent="1">
          <mxGeometry x="479" y="401" width="40" height="20" as="geometry" />
        </mxCell>
        <mxCell id="wa8ue6IfsQ15fD_jYDgk-119" value="" style="endArrow=none;html=1;" edge="1" parent="1">
          <mxGeometry width="50" height="50" relative="1" as="geometry">
            <mxPoint x="359" y="437" as="sourcePoint" />
            <mxPoint x="359" y="427" as="targetPoint" />
          </mxGeometry>
        </mxCell>
        <mxCell id="wa8ue6IfsQ15fD_jYDgk-120" value="" style="endArrow=none;html=1;" edge="1" parent="1">
          <mxGeometry width="50" height="50" relative="1" as="geometry">
            <mxPoint x="520" y="437" as="sourcePoint" />
            <mxPoint x="520" y="427" as="targetPoint" />
          </mxGeometry>
        </mxCell>
        <mxCell id="wa8ue6IfsQ15fD_jYDgk-121" value="" style="endArrow=none;html=1;" edge="1" parent="1">
          <mxGeometry width="50" height="50" relative="1" as="geometry">
            <mxPoint x="359" y="432" as="sourcePoint" />
            <mxPoint x="519" y="432" as="targetPoint" />
          </mxGeometry>
        </mxCell>
        <mxCell id="wa8ue6IfsQ15fD_jYDgk-122" value="video (title+ocr)" style="text;html=1;align=center;verticalAlign=middle;resizable=0;points=[];autosize=1;strokeColor=none;" vertex="1" parent="1">
          <mxGeometry x="393" y="434" width="100" height="20" as="geometry" />
        </mxCell>
        <mxCell id="wa8ue6IfsQ15fD_jYDgk-123" value="&lt;b&gt;&lt;font style=&quot;font-size: 14px&quot;&gt;&lt;i&gt;sim(q,v)&lt;/i&gt;&lt;/font&gt;&lt;/b&gt;" style="text;html=1;align=center;verticalAlign=middle;resizable=0;points=[];autosize=1;strokeColor=none;" vertex="1" parent="1">
          <mxGeometry x="130" y="256" width="70" height="20" as="geometry" />
        </mxCell>
      </root>
    </mxGraphModel>
  </diagram>
</mxfile>
